<svg width="42" height="66" fill="none" xmlns="http://www.w3.org/2000/svg"><g filter="url(#a)"><path d="m30.026 40.05-3.71-3.7c1.002-1.3 1.704-3 1.704-4.9 0-4.4-3.61-8-8.023-8-4.412 0-8.022 3.7-8.022 8.1 0 4.4 3.61 8 8.022 8 1.805 0 3.51-.6 4.914-1.7l3.71 3.7 1.405-1.5Zm-10.029-2.5c-3.31 0-6.017-2.7-6.017-6s2.708-6 6.017-6c3.31 0 6.017 2.7 6.017 6s-2.707 6-6.017 6Z" fill="#000"/></g><defs><filter id="a" x="-4" y="0" width="50" height="74" filterUnits="userSpaceOnUse" color-interpolation-filters="sRGB"><feFlood flood-opacity="0" result="BackgroundImageFix"/><feColorMatrix in="SourceAlpha" values="0 0 0 0 0 0 0 0 0 0 0 0 0 0 0 0 0 0 127 0" result="hardAlpha"/><feOffset dy="4"/><feGaussianBlur stdDeviation="2"/><feComposite in2="hardAlpha" operator="out"/><feColorMatrix values="0 0 0 0 0 0 0 0 0 0 0 0 0 0 0 0 0 0 0.25 0"/><feBlend in2="BackgroundImageFix" result="effect1_dropShadow_24196_809"/><feBlend in="SourceGraphic" in2="effect1_dropShadow_24196_809" result="shape"/></filter></defs></svg>