<svg width="16" height="11" viewBox="0 0 16 11" fill="none" xmlns="http://www.w3.org/2000/svg"><path opacity=".3" d="M.3 5.5c0-1.5.4-2.7 1-3.5C2 1.2 3 .8 4.3.8 5 .8 5.5.9 6 1c.5.2 1 .6 1.3 1 .3.4.5.9.7 1.5l.2 1.9C8.2 7 8 8.2 7.2 9c-.7.8-1.6 1.2-3 1.2-.6 0-1.2 0-1.7-.3-.5-.2-.9-.6-1.2-1C1 8.5.7 8 .6 7.4.4 7 .3 6.2.3 5.5Zm1.5 0c0 .5 0 .9.2 1.3 0 .4.2.8.4 1.1l.7.8c.4.2.7.3 1.2.3 1.6 0 2.4-1.2 2.4-3.5l-.1-1.3L6.2 3a2.1 2.1 0 0 0-2-1C2.8 2 1.9 3 1.9 5.4ZM16 2.3H13V10h-1.4V2.3H8.9V1h7v1.3Z" fill="#fff"/></svg>