<svg width="20" height="13" viewBox="0 0 20 13" fill="none" xmlns="http://www.w3.org/2000/svg"><path opacity=".3" d="M10 12.3H9L8.7 10H2l-.2 2.3h-1V8.7h1c.2 0 .3-.3.4-.7l.5-1.4.4-2.3.2-3.3h5.4v7.7H10v3.6ZM7.2 8.7V2.3H4.5a32 32 0 0 1-.8 5c-.1.6-.3 1-.5 1.4h4Zm4-3.2c0-1.5.4-2.7 1-3.5.7-.8 1.7-1.2 3-1.2.6 0 1.2.1 1.7.3.5.2 1 .6 1.3 1 .3.4.5.9.7 1.5l.2 1.9c0 1.5-.3 2.7-1 3.5-.7.8-1.7 1.2-3 1.2-.6 0-1.2 0-1.7-.3-.5-.2-.9-.6-1.2-1-.3-.4-.6-.9-.7-1.5-.2-.5-.3-1.2-.3-1.9Zm1.5 0c0 .5 0 .9.2 1.3 0 .4.2.8.4 1.1l.7.8c.4.2.7.3 1.2.3 1.6 0 2.4-1.2 2.4-3.5l-.1-1.3L17 3a2.1 2.1 0 0 0-2-1c-1.6 0-2.4 1-2.4 3.4Z" fill="#fff"/></svg>